<?xml version="1.0" encoding="UTF-8" standalone="no"?>
<svg
    xmlns="http://www.w3.org/2000/svg"
    width="16"
    height="16"
    version="1.1">
  <circle style="fill:#a0a0c0" cx="8" cy="8" r="8" />
  <g transform="matrix(0.01002696,0,0,-0.01002696,3.3817607,14.591213)">
    <path
        d="m 967,288 h 36 C 1003,182.66667 986,106 952,58 918,10 875,-14 823,-14 781,-14 740.66667,1.6666667 702,33 663.33333,64.333333 628.66667,149.33333 598,288 L 512,676 214,0 H 25 l 428,922 c -22.66667,119.3333 -50,207.6667 -82,265 -32,57.3333 -71.66667,86 -119,86 -38,0 -71,-14.3333 -99,-43 -28,-28.6667 -44,-73.6667 -48,-135 H 69 c 2,98 21.666667,176.3333 59,235 37.33333,58.6667 84,88.3333 140,89 36,0 70,-14.6667 102,-44 32,-29.3333 60,-80 84,-152 24,-72 61,-220.6667 111,-446 l 71,-317 c 28.66667,-131.33333 58.66667,-219 90,-263 31.33333,-44 69.33333,-66.33333 114,-67 74.66667,0 117,52.66667 127,158 z"
        style="fill:#000000" />
  </g>
</svg>
